<svg xmlns="http://www.w3.org/2000/svg" viewBox="0 0 448 512" fill="none">
  <path d="M292.3 311.9c0-42.5-30.1-65.2-84.2-65.2H162v130h46.2c56.1 0 84.1-22.9 84.1-64.8zM194.9 190h39.2c45.5 0 73.7-19.3 73.7-56.3 0-36.5-26.4-55.7-70.4-55.7h-42.6v112zM448 80v352c0 44.2-35.8 80-80 80H80c-44.2 0-80-35.8-80-80V80C0 35.8 35.8 0 80 0h288c44.2 0 80 35.8 80 80zm-141.3 230.6c0 74.9-56.7 106.4-121.2 106.4H118.7c-6.6 0-12-5.4-12-12V107.4c0-6.6 5.4-12 12-12h66.9c62.4 0 113.7 28.9 113.7 94.8 0 40.8-22.3 68.8-54.6 81.6 44.5 11.4 71 42.6 71 86.8z" fill="#7952B3"/>
</svg>
