<svg xmlns="http://www.w3.org/2000/svg" viewBox="0 0 256 221" fill="none">
  <path d="M237.2 60.5l-58.56-33.8c-3.6-2.08-8-2.08-11.6 0l-58.56 33.8c-3.6 2.08-5.8 5.92-5.8 10.12v67.6c0 4.2 2.2 8.04 5.8 10.12l58.56 33.8c3.6 2.08 8 2.08 11.6 0l58.56-33.8c3.6-2.08 5.8-5.92 5.8-10.12v-67.6c0-4.2-2.2-8.04-5.8-10.12zM176.2 82.3l44.36 25.6v51.2l-44.36 25.6-44.36-25.6v-51.2l44.36-25.6zM78.76 58.6l34.8-20.1c3.6-2.08 8-2.08 11.6 0l34.8 20.1c3.6 2.08 5.8 5.92 5.8 10.12v67.6c0 4.2-2.2 8.04-5.8 10.12l-34.8 20.1c-3.6 2.08-8 2.08-11.6 0l-34.8-20.1c-3.6-2.08-5.8-5.92-5.8-10.12v-67.6c0-4.2 2.2-8.04 5.8-10.12zM113.56 80.4l44.36 25.6v51.2l-44.36 25.6-44.36-25.6v-51.2l44.36-25.6zM4.76 140.7L51.56 166c3.6 2.08 8 2.08 11.6 0l58.56-33.8c3.6-2.08 5.8-5.92 5.8-10.12v-67.6c0-4.2-2.2-8.04-5.8-10.12l-58.56-33.8c-3.6-2.08-8-2.08-11.6 0L4.76 60.5c-3.6 2.08-5.8 5.92-5.8 10.12v67.6c0 4.2 2.2 8.04 5.8 10.12zM50.36 58.6l44.36 25.6v51.2l-44.36 25.6L6 135.4V84.2L50.36 58.6z" fill="#FF2D20"/>
</svg>
